<mxfile host="Electron" agent="Mozilla/5.0 (Windows NT 10.0; Win64; x64) AppleWebKit/537.36 (KHTML, like Gecko) draw.io/27.0.9 Chrome/134.0.6998.205 Electron/35.4.0 Safari/537.36" version="27.0.9">
  <diagram name="Page-1" id="7-d2Kp1HphyAQgKk-GRI">
    <mxGraphModel dx="1188" dy="729" grid="1" gridSize="10" guides="1" tooltips="1" connect="1" arrows="1" fold="1" page="1" pageScale="1" pageWidth="1700" pageHeight="1100" math="0" shadow="0">
      <root>
        <mxCell id="0" />
        <mxCell id="1" parent="0" />
        <mxCell id="HAyTQfDS9Hgm0etBAd6j-1" value="" style="rounded=0;whiteSpace=wrap;html=1;fillColor=none;dashed=1;strokeColor=light-dark(#242424, #EDEDED);" parent="1" vertex="1">
          <mxGeometry x="300" y="250" width="150" height="390" as="geometry" />
        </mxCell>
        <mxCell id="HAyTQfDS9Hgm0etBAd6j-2" value="&lt;font face=&quot;Comic Sans MS&quot;&gt;&lt;b&gt;Sources&lt;/b&gt;&lt;/font&gt;" style="rounded=1;whiteSpace=wrap;html=1;fillColor=default;strokeColor=none;" parent="1" vertex="1">
          <mxGeometry x="325" y="240" width="100" height="30" as="geometry" />
        </mxCell>
        <mxCell id="HAyTQfDS9Hgm0etBAd6j-12" style="edgeStyle=orthogonalEdgeStyle;rounded=0;orthogonalLoop=1;jettySize=auto;html=1;entryX=0;entryY=0.5;entryDx=0;entryDy=0;" parent="1" source="HAyTQfDS9Hgm0etBAd6j-3" target="HAyTQfDS9Hgm0etBAd6j-9" edge="1">
          <mxGeometry relative="1" as="geometry" />
        </mxCell>
        <mxCell id="HAyTQfDS9Hgm0etBAd6j-18" style="edgeStyle=orthogonalEdgeStyle;rounded=0;orthogonalLoop=1;jettySize=auto;html=1;entryX=0;entryY=0.5;entryDx=0;entryDy=0;" parent="1" source="HAyTQfDS9Hgm0etBAd6j-3" target="HAyTQfDS9Hgm0etBAd6j-11" edge="1">
          <mxGeometry relative="1" as="geometry" />
        </mxCell>
        <mxCell id="HAyTQfDS9Hgm0etBAd6j-19" style="edgeStyle=orthogonalEdgeStyle;rounded=0;orthogonalLoop=1;jettySize=auto;html=1;entryX=0;entryY=0.5;entryDx=0;entryDy=0;" parent="1" source="HAyTQfDS9Hgm0etBAd6j-3" target="HAyTQfDS9Hgm0etBAd6j-10" edge="1">
          <mxGeometry relative="1" as="geometry" />
        </mxCell>
        <mxCell id="HAyTQfDS9Hgm0etBAd6j-3" value="" style="image;aspect=fixed;html=1;points=[];align=center;fontSize=12;image=img/lib/azure2/general/Folder_Blank.svg;" parent="1" vertex="1">
          <mxGeometry x="349.28" y="370" width="61.61" height="50" as="geometry" />
        </mxCell>
        <mxCell id="HAyTQfDS9Hgm0etBAd6j-4" value="&lt;b&gt;&lt;font face=&quot;Comic Sans MS&quot;&gt;CRM&lt;/font&gt;&lt;/b&gt;" style="text;html=1;align=center;verticalAlign=middle;whiteSpace=wrap;rounded=0;" parent="1" vertex="1">
          <mxGeometry x="347.67" y="420" width="60" height="20" as="geometry" />
        </mxCell>
        <mxCell id="HAyTQfDS9Hgm0etBAd6j-20" style="edgeStyle=orthogonalEdgeStyle;rounded=0;orthogonalLoop=1;jettySize=auto;html=1;entryX=0;entryY=0.5;entryDx=0;entryDy=0;" parent="1" source="HAyTQfDS9Hgm0etBAd6j-5" target="HAyTQfDS9Hgm0etBAd6j-15" edge="1">
          <mxGeometry relative="1" as="geometry" />
        </mxCell>
        <mxCell id="HAyTQfDS9Hgm0etBAd6j-21" style="edgeStyle=orthogonalEdgeStyle;rounded=0;orthogonalLoop=1;jettySize=auto;html=1;entryX=0;entryY=0.5;entryDx=0;entryDy=0;" parent="1" source="HAyTQfDS9Hgm0etBAd6j-5" target="HAyTQfDS9Hgm0etBAd6j-16" edge="1">
          <mxGeometry relative="1" as="geometry" />
        </mxCell>
        <mxCell id="HAyTQfDS9Hgm0etBAd6j-22" style="edgeStyle=orthogonalEdgeStyle;rounded=0;orthogonalLoop=1;jettySize=auto;html=1;entryX=0;entryY=0.5;entryDx=0;entryDy=0;" parent="1" source="HAyTQfDS9Hgm0etBAd6j-5" target="HAyTQfDS9Hgm0etBAd6j-17" edge="1">
          <mxGeometry relative="1" as="geometry" />
        </mxCell>
        <mxCell id="HAyTQfDS9Hgm0etBAd6j-5" value="" style="image;aspect=fixed;html=1;points=[];align=center;fontSize=12;image=img/lib/azure2/general/Folder_Blank.svg;" parent="1" vertex="1">
          <mxGeometry x="348.48" y="511.31" width="60" height="48.69" as="geometry" />
        </mxCell>
        <mxCell id="HAyTQfDS9Hgm0etBAd6j-6" value="&lt;font face=&quot;Comic Sans MS&quot;&gt;&lt;b&gt;ERP&lt;/b&gt;&lt;/font&gt;" style="text;html=1;align=center;verticalAlign=middle;whiteSpace=wrap;rounded=0;" parent="1" vertex="1">
          <mxGeometry x="349.28" y="560" width="60" height="20" as="geometry" />
        </mxCell>
        <mxCell id="HAyTQfDS9Hgm0etBAd6j-7" value="" style="rounded=0;whiteSpace=wrap;html=1;fillColor=none;strokeColor=#d79b00;fillStyle=hatch;fontColor=#000033;" parent="1" vertex="1">
          <mxGeometry x="537.6700000000001" y="300" width="150" height="340" as="geometry" />
        </mxCell>
        <mxCell id="HAyTQfDS9Hgm0etBAd6j-8" value="&lt;b&gt;&lt;font face=&quot;Comic Sans MS&quot;&gt;Bronze Layer&lt;/font&gt;&lt;/b&gt;" style="rounded=1;whiteSpace=wrap;html=1;fillColor=#ffe6cc;strokeColor=#d79b00;fontColor=#000033;" parent="1" vertex="1">
          <mxGeometry x="537.6700000000001" y="250" width="150" height="40" as="geometry" />
        </mxCell>
        <mxCell id="KE4VJ3iSTp9LeFAxXFPG-10" style="edgeStyle=orthogonalEdgeStyle;rounded=0;orthogonalLoop=1;jettySize=auto;html=1;" parent="1" source="HAyTQfDS9Hgm0etBAd6j-9" target="KE4VJ3iSTp9LeFAxXFPG-3" edge="1">
          <mxGeometry relative="1" as="geometry" />
        </mxCell>
        <mxCell id="HAyTQfDS9Hgm0etBAd6j-9" value="&lt;font face=&quot;Comic Sans MS&quot;&gt;&lt;b&gt;crm_sales_details&lt;/b&gt;&lt;/font&gt;" style="rounded=1;whiteSpace=wrap;html=1;fillColor=#ffe6cc;strokeColor=#d79b00;fontColor=#000033;" parent="1" vertex="1">
          <mxGeometry x="547.6700000000001" y="338" width="130" height="32" as="geometry" />
        </mxCell>
        <mxCell id="KE4VJ3iSTp9LeFAxXFPG-11" style="edgeStyle=orthogonalEdgeStyle;rounded=0;orthogonalLoop=1;jettySize=auto;html=1;entryX=0;entryY=0.5;entryDx=0;entryDy=0;" parent="1" source="HAyTQfDS9Hgm0etBAd6j-10" target="KE4VJ3iSTp9LeFAxXFPG-4" edge="1">
          <mxGeometry relative="1" as="geometry" />
        </mxCell>
        <mxCell id="HAyTQfDS9Hgm0etBAd6j-10" value="&lt;font face=&quot;Comic Sans MS&quot;&gt;&lt;b&gt;crm_cust_info&lt;/b&gt;&lt;/font&gt;" style="rounded=1;whiteSpace=wrap;html=1;fillColor=#ffe6cc;strokeColor=#d79b00;fontColor=#000033;" parent="1" vertex="1">
          <mxGeometry x="547.6700000000001" y="380" width="130" height="30" as="geometry" />
        </mxCell>
        <mxCell id="KE4VJ3iSTp9LeFAxXFPG-22" style="edgeStyle=orthogonalEdgeStyle;rounded=0;orthogonalLoop=1;jettySize=auto;html=1;" parent="1" source="HAyTQfDS9Hgm0etBAd6j-11" target="KE4VJ3iSTp9LeFAxXFPG-8" edge="1">
          <mxGeometry relative="1" as="geometry" />
        </mxCell>
        <mxCell id="HAyTQfDS9Hgm0etBAd6j-11" value="&lt;font face=&quot;Comic Sans MS&quot;&gt;&lt;b&gt;crm_prd_info&lt;/b&gt;&lt;/font&gt;" style="rounded=1;whiteSpace=wrap;html=1;fillColor=#ffe6cc;strokeColor=#d79b00;fontColor=#000033;" parent="1" vertex="1">
          <mxGeometry x="547.6700000000001" y="425" width="130" height="35" as="geometry" />
        </mxCell>
        <mxCell id="KE4VJ3iSTp9LeFAxXFPG-18" style="edgeStyle=orthogonalEdgeStyle;rounded=0;orthogonalLoop=1;jettySize=auto;html=1;entryX=0;entryY=0.5;entryDx=0;entryDy=0;" parent="1" source="HAyTQfDS9Hgm0etBAd6j-15" target="KE4VJ3iSTp9LeFAxXFPG-5" edge="1">
          <mxGeometry relative="1" as="geometry" />
        </mxCell>
        <mxCell id="HAyTQfDS9Hgm0etBAd6j-15" value="&lt;font face=&quot;Comic Sans MS&quot;&gt;&lt;b&gt;erp_cust_az12&lt;/b&gt;&lt;/font&gt;" style="rounded=1;whiteSpace=wrap;html=1;fillColor=#ffe6cc;strokeColor=#d79b00;fontColor=#000033;" parent="1" vertex="1">
          <mxGeometry x="547.6700000000001" y="480" width="130" height="30" as="geometry" />
        </mxCell>
        <mxCell id="KE4VJ3iSTp9LeFAxXFPG-19" style="edgeStyle=orthogonalEdgeStyle;rounded=0;orthogonalLoop=1;jettySize=auto;html=1;entryX=0;entryY=0.5;entryDx=0;entryDy=0;" parent="1" source="HAyTQfDS9Hgm0etBAd6j-16" target="KE4VJ3iSTp9LeFAxXFPG-6" edge="1">
          <mxGeometry relative="1" as="geometry" />
        </mxCell>
        <mxCell id="HAyTQfDS9Hgm0etBAd6j-16" value="&lt;font face=&quot;Comic Sans MS&quot;&gt;&lt;b&gt;erp_loc_a101&lt;/b&gt;&lt;/font&gt;" style="rounded=1;whiteSpace=wrap;html=1;fillColor=#ffe6cc;strokeColor=#d79b00;fontColor=#000033;" parent="1" vertex="1">
          <mxGeometry x="547.6700000000001" y="520" width="130" height="30" as="geometry" />
        </mxCell>
        <mxCell id="KE4VJ3iSTp9LeFAxXFPG-20" style="edgeStyle=orthogonalEdgeStyle;rounded=0;orthogonalLoop=1;jettySize=auto;html=1;entryX=0;entryY=0.5;entryDx=0;entryDy=0;" parent="1" source="HAyTQfDS9Hgm0etBAd6j-17" target="KE4VJ3iSTp9LeFAxXFPG-7" edge="1">
          <mxGeometry relative="1" as="geometry" />
        </mxCell>
        <mxCell id="HAyTQfDS9Hgm0etBAd6j-17" value="&lt;font face=&quot;Comic Sans MS&quot;&gt;&lt;b&gt;erp_px_cat_g1v2&lt;/b&gt;&lt;/font&gt;" style="rounded=1;whiteSpace=wrap;html=1;fillColor=#ffe6cc;strokeColor=#d79b00;fontColor=#000033;" parent="1" vertex="1">
          <mxGeometry x="547.6700000000001" y="560" width="130" height="30" as="geometry" />
        </mxCell>
        <mxCell id="KE4VJ3iSTp9LeFAxXFPG-1" value="" style="rounded=0;whiteSpace=wrap;html=1;fillColor=none;strokeColor=#666666;fillStyle=hatch;fontColor=#333333;" parent="1" vertex="1">
          <mxGeometry x="730" y="300" width="157.67" height="340" as="geometry" />
        </mxCell>
        <mxCell id="KE4VJ3iSTp9LeFAxXFPG-2" value="&lt;b&gt;&lt;font face=&quot;Comic Sans MS&quot;&gt;Silver Layer&lt;/font&gt;&lt;/b&gt;" style="rounded=1;whiteSpace=wrap;html=1;fillColor=#f5f5f5;strokeColor=#666666;fontColor=#333333;" parent="1" vertex="1">
          <mxGeometry x="730" y="250" width="150" height="40" as="geometry" />
        </mxCell>
        <mxCell id="KE4VJ3iSTp9LeFAxXFPG-3" value="&lt;font face=&quot;Comic Sans MS&quot;&gt;&lt;b&gt;crm_sales_details&lt;/b&gt;&lt;/font&gt;" style="rounded=1;whiteSpace=wrap;html=1;fillColor=#f5f5f5;strokeColor=#666666;fontColor=#333333;" parent="1" vertex="1">
          <mxGeometry x="747.67" y="338" width="130" height="32" as="geometry" />
        </mxCell>
        <mxCell id="KE4VJ3iSTp9LeFAxXFPG-4" value="&lt;font face=&quot;Comic Sans MS&quot;&gt;&lt;b&gt;crm_cust_info&lt;/b&gt;&lt;/font&gt;" style="rounded=1;whiteSpace=wrap;html=1;fillColor=#f5f5f5;strokeColor=#666666;fontColor=#333333;" parent="1" vertex="1">
          <mxGeometry x="747.67" y="380" width="130" height="30" as="geometry" />
        </mxCell>
        <mxCell id="KE4VJ3iSTp9LeFAxXFPG-5" value="&lt;font face=&quot;Comic Sans MS&quot;&gt;&lt;b&gt;erp_cust_az12&lt;/b&gt;&lt;/font&gt;" style="rounded=1;whiteSpace=wrap;html=1;fillColor=#f5f5f5;strokeColor=#666666;fontColor=#333333;" parent="1" vertex="1">
          <mxGeometry x="747.67" y="480" width="130" height="30" as="geometry" />
        </mxCell>
        <mxCell id="KE4VJ3iSTp9LeFAxXFPG-6" value="&lt;font face=&quot;Comic Sans MS&quot;&gt;&lt;b&gt;erp_loc_a101&lt;/b&gt;&lt;/font&gt;" style="rounded=1;whiteSpace=wrap;html=1;fillColor=#f5f5f5;strokeColor=#666666;fontColor=#333333;" parent="1" vertex="1">
          <mxGeometry x="747.67" y="520.65" width="130" height="30" as="geometry" />
        </mxCell>
        <mxCell id="KE4VJ3iSTp9LeFAxXFPG-7" value="&lt;font face=&quot;Comic Sans MS&quot;&gt;&lt;b&gt;erp_px_cat_g1v2&lt;/b&gt;&lt;/font&gt;" style="rounded=1;whiteSpace=wrap;html=1;fillColor=#f5f5f5;strokeColor=#666666;fontColor=#333333;" parent="1" vertex="1">
          <mxGeometry x="747.67" y="560" width="130" height="30" as="geometry" />
        </mxCell>
        <mxCell id="KE4VJ3iSTp9LeFAxXFPG-8" value="&lt;font face=&quot;Comic Sans MS&quot;&gt;&lt;b&gt;crm_prd_info&lt;/b&gt;&lt;/font&gt;" style="rounded=1;whiteSpace=wrap;html=1;fillColor=#f5f5f5;strokeColor=#666666;fontColor=#333333;" parent="1" vertex="1">
          <mxGeometry x="747.67" y="420" width="130" height="40" as="geometry" />
        </mxCell>
        <mxCell id="CNxDLc6GGm41qms6GJf7-1" value="" style="rounded=0;whiteSpace=wrap;html=1;fillColor=none;strokeColor=#BD7000;fillStyle=hatch;fontColor=#000000;" vertex="1" parent="1">
          <mxGeometry x="937.67" y="300" width="150" height="340" as="geometry" />
        </mxCell>
        <mxCell id="CNxDLc6GGm41qms6GJf7-2" value="&lt;font face=&quot;Comic Sans MS&quot;&gt;&lt;b&gt;Gold Layer&lt;/b&gt;&lt;/font&gt;" style="rounded=1;whiteSpace=wrap;html=1;fillColor=#f0a30a;strokeColor=#BD7000;fontColor=#000000;" vertex="1" parent="1">
          <mxGeometry x="937.67" y="250" width="150" height="40" as="geometry" />
        </mxCell>
        <mxCell id="CNxDLc6GGm41qms6GJf7-3" value="&lt;font face=&quot;Comic Sans MS&quot;&gt;&lt;b&gt;fact_sales&lt;/b&gt;&lt;/font&gt;" style="rounded=1;whiteSpace=wrap;html=1;fillColor=#f0a30a;strokeColor=#BD7000;fontColor=#000000;" vertex="1" parent="1">
          <mxGeometry x="947.67" y="370" width="130" height="32" as="geometry" />
        </mxCell>
        <mxCell id="CNxDLc6GGm41qms6GJf7-4" value="&lt;font face=&quot;Comic Sans MS&quot;&gt;&lt;b&gt;dim_customers&lt;/b&gt;&lt;/font&gt;" style="rounded=1;whiteSpace=wrap;html=1;fillColor=#f0a30a;strokeColor=#BD7000;fontColor=#000000;" vertex="1" parent="1">
          <mxGeometry x="947.67" y="450" width="130" height="30" as="geometry" />
        </mxCell>
        <mxCell id="CNxDLc6GGm41qms6GJf7-8" value="&lt;font face=&quot;Comic Sans MS&quot;&gt;&lt;b&gt;dim_products&lt;/b&gt;&lt;/font&gt;" style="rounded=1;whiteSpace=wrap;html=1;fillColor=#f0a30a;strokeColor=#BD7000;fontColor=#000000;" vertex="1" parent="1">
          <mxGeometry x="947.67" y="510" width="130" height="40" as="geometry" />
        </mxCell>
        <mxCell id="CNxDLc6GGm41qms6GJf7-11" value="" style="endArrow=classic;html=1;rounded=0;entryX=0;entryY=0.25;entryDx=0;entryDy=0;jumpStyle=gap;" edge="1" parent="1" target="CNxDLc6GGm41qms6GJf7-3">
          <mxGeometry width="50" height="50" relative="1" as="geometry">
            <mxPoint x="880" y="360" as="sourcePoint" />
            <mxPoint x="930" y="310" as="targetPoint" />
          </mxGeometry>
        </mxCell>
        <mxCell id="CNxDLc6GGm41qms6GJf7-12" value="" style="endArrow=classic;html=1;rounded=0;entryX=0;entryY=0.5;entryDx=0;entryDy=0;exitX=1;exitY=0.5;exitDx=0;exitDy=0;jumpStyle=gap;" edge="1" parent="1" source="KE4VJ3iSTp9LeFAxXFPG-4" target="CNxDLc6GGm41qms6GJf7-4">
          <mxGeometry width="50" height="50" relative="1" as="geometry">
            <mxPoint x="900" y="370" as="sourcePoint" />
            <mxPoint x="968" y="416" as="targetPoint" />
          </mxGeometry>
        </mxCell>
        <mxCell id="CNxDLc6GGm41qms6GJf7-13" value="" style="endArrow=classic;html=1;rounded=0;entryX=0;entryY=0.5;entryDx=0;entryDy=0;exitX=0.864;exitY=0.667;exitDx=0;exitDy=0;exitPerimeter=0;jumpStyle=gap;" edge="1" parent="1" source="KE4VJ3iSTp9LeFAxXFPG-5" target="CNxDLc6GGm41qms6GJf7-4">
          <mxGeometry width="50" height="50" relative="1" as="geometry">
            <mxPoint x="900" y="420" as="sourcePoint" />
            <mxPoint x="970" y="490" as="targetPoint" />
          </mxGeometry>
        </mxCell>
        <mxCell id="CNxDLc6GGm41qms6GJf7-14" value="" style="endArrow=classic;html=1;rounded=0;entryX=0;entryY=0.75;entryDx=0;entryDy=0;exitX=0.864;exitY=0.667;exitDx=0;exitDy=0;exitPerimeter=0;jumpStyle=gap;" edge="1" parent="1" target="CNxDLc6GGm41qms6GJf7-4">
          <mxGeometry width="50" height="50" relative="1" as="geometry">
            <mxPoint x="877.67" y="535" as="sourcePoint" />
            <mxPoint x="965.67" y="500" as="targetPoint" />
          </mxGeometry>
        </mxCell>
        <mxCell id="CNxDLc6GGm41qms6GJf7-15" value="" style="endArrow=classic;html=1;rounded=0;entryX=0;entryY=0.25;entryDx=0;entryDy=0;exitX=1;exitY=0.5;exitDx=0;exitDy=0;jumpStyle=gap;" edge="1" parent="1" target="CNxDLc6GGm41qms6GJf7-8">
          <mxGeometry width="50" height="50" relative="1" as="geometry">
            <mxPoint x="877.67" y="440" as="sourcePoint" />
            <mxPoint x="947.67" y="510" as="targetPoint" />
          </mxGeometry>
        </mxCell>
        <mxCell id="CNxDLc6GGm41qms6GJf7-17" value="" style="endArrow=classic;html=1;rounded=0;exitX=0.864;exitY=0.667;exitDx=0;exitDy=0;exitPerimeter=0;entryX=0;entryY=0.75;entryDx=0;entryDy=0;jumpStyle=gap;" edge="1" parent="1" target="CNxDLc6GGm41qms6GJf7-8">
          <mxGeometry width="50" height="50" relative="1" as="geometry">
            <mxPoint x="877.67" y="580" as="sourcePoint" />
            <mxPoint x="948" y="518" as="targetPoint" />
          </mxGeometry>
        </mxCell>
        <mxCell id="CNxDLc6GGm41qms6GJf7-18" value="&lt;font style=&quot;font-size: 19px;&quot; face=&quot;Comic Sans MS&quot;&gt;Data Flow Diagram&lt;/font&gt;" style="text;html=1;align=center;verticalAlign=middle;whiteSpace=wrap;rounded=0;" vertex="1" parent="1">
          <mxGeometry x="140" y="140" width="250" height="30" as="geometry" />
        </mxCell>
      </root>
    </mxGraphModel>
  </diagram>
</mxfile>
